HIERARCHY
ROOT Hips
{
	OFFSET 0.000000 0.000000 0.000000
	CHANNELS 6 Xposition Yposition Zposition Xrotation Yrotation Zrotation
	JOINT LeftUpLeg_virtual
	{
		OFFSET 0.000000 0.000000 0.000000
		CHANNELS 3 Xrotation Yrotation Zrotation
		JOINT LeftUpLeg
		{
			OFFSET 11.394100 -6.187798 -0.413800
			CHANNELS 3 Xrotation Yrotation Zrotation
			JOINT LeftLeg
			{
				OFFSET 0.430247 -32.302673 3.732800
				CHANNELS 3 Xrotation Yrotation Zrotation
				JOINT LeftFoot
				{
					OFFSET -0.430247 -48.264931 -6.423300
					CHANNELS 3 Xrotation Yrotation Zrotation
					JOINT LeftToeBase
					{
						OFFSET 4.230900 -16.068199 23.438400
						CHANNELS 3 Xrotation Yrotation Zrotation
						JOINT LeftToe_End
						{
							OFFSET 4.510700 0.695400 19.974600
							CHANNELS 3 Xrotation Yrotation Zrotation
							End Site
							{
								OFFSET 0 0 0
							}
						}
					}
				}
			}
		}
	}
	JOINT RightUpLeg_virtual
	{
		OFFSET 0.000000 0.000000 0.000000
		CHANNELS 3 Xrotation Yrotation Zrotation
		JOINT RightUpLeg
		{
			OFFSET -11.333700 -6.187798 -0.413800
			CHANNELS 3 Xrotation Yrotation Zrotation
			JOINT RightLeg
			{
				OFFSET -0.430392 -32.302628 3.733000
				CHANNELS 3 Xrotation Yrotation Zrotation
				JOINT RightFoot
				{
					OFFSET 0.430392 -48.264973 -6.423500
					CHANNELS 3 Xrotation Yrotation Zrotation
					JOINT RightToeBase
					{
						OFFSET -4.230900 -16.068199 23.438400
						CHANNELS 3 Xrotation Yrotation Zrotation
						JOINT RightToe_End
						{
							OFFSET -4.510700 0.695400 19.974600
							CHANNELS 3 Xrotation Yrotation Zrotation
							End Site
							{
								OFFSET 0 0 0
							}
						}
					}
				}
			}
		}
	}
	JOINT Spine_virtual
	{
		OFFSET 0.000000 0.000000 0.000000
		CHANNELS 3 Xrotation Yrotation Zrotation
		JOINT Spine
		{
			OFFSET -0.002400 12.777504 0.315300
			CHANNELS 3 Xrotation Yrotation Zrotation
			JOINT Spine1
			{
				OFFSET -0.002067 5.816869 0.032633
				CHANNELS 3 Xrotation Yrotation Zrotation
				JOINT Spine1_split
				{
					OFFSET -0.002067 5.816869 0.032633
					CHANNELS 3 Xrotation Yrotation Zrotation
					JOINT Spine2
					{
						OFFSET -0.002067 5.816869 0.032633
						CHANNELS 3 Xrotation Yrotation Zrotation
						JOINT Neck_virtual
						{
							OFFSET 0.000000 0.000000 0.000000
							CHANNELS 3 Xrotation Yrotation Zrotation
							JOINT Neck
							{
								OFFSET -0.003700 21.199493 -0.826900
								CHANNELS 3 Xrotation Yrotation Zrotation
								JOINT Head
								{
									OFFSET 0.000000 20.442200 4.834800
									CHANNELS 3 Xrotation Yrotation Zrotation
									JOINT HeadTop_End
									{
										OFFSET 0.000000 34.668396 4.968400
										CHANNELS 3 Xrotation Yrotation Zrotation
										End Site
										{
											OFFSET 0 0 0
										}
									}
								}
							}
						}
						JOINT LeftShoulder_virtual
						{
							OFFSET 0.000000 0.000000 0.000000
							CHANNELS 3 Xrotation Yrotation Zrotation
							JOINT LeftShoulder
							{
								OFFSET 3.288150 8.794197 -1.372250
								CHANNELS 3 Xrotation Yrotation Zrotation
								JOINT LeftShoulder_split
								{
									OFFSET 3.288150 8.794197 -1.372250
									CHANNELS 3 Xrotation Yrotation Zrotation
									JOINT LeftArm
									{
										OFFSET 11.953299 -2.279007 -0.146200
										CHANNELS 3 Xrotation Yrotation Zrotation
										JOINT LeftForeArm
										{
											OFFSET 18.448900 0.000000 0.000000
											CHANNELS 3 Xrotation Yrotation Zrotation
											JOINT LeftHand
											{
												OFFSET 29.527798 0.000000 0.000000
												CHANNELS 3 Xrotation Yrotation Zrotation
												End Site
												{
													OFFSET 0 0 0
												}
											}
										}
									}
								}
							}
						}
						JOINT RightShoulder_virtual
						{
							OFFSET 0.000000 0.000000 0.000000
							CHANNELS 3 Xrotation Yrotation Zrotation
							JOINT RightShoulder
							{
								OFFSET -3.249400 8.794197 -1.372250
								CHANNELS 3 Xrotation Yrotation Zrotation
								JOINT RightShoulder_split
								{
									OFFSET -3.249400 8.794197 -1.372250
									CHANNELS 3 Xrotation Yrotation Zrotation
									JOINT RightArm
									{
										OFFSET -11.953299 -2.279007 -0.146200
										CHANNELS 3 Xrotation Yrotation Zrotation
										JOINT RightForeArm
										{
											OFFSET -18.448900 0.000000 0.000000
											CHANNELS 3 Xrotation Yrotation Zrotation
											JOINT RightHand
											{
												OFFSET -29.527802 0.000000 0.000000
												CHANNELS 3 Xrotation Yrotation Zrotation
												End Site
												{
													OFFSET 0 0 0
												}
											}
										}
									}
								}
							}
						}
					}
				}
			}
		}
	}
}
MOTION
Frames: 6
Frame Time: 0.03333333
-0.051650 107.800552 -3.399414 0.000000 0.000000 0.000000 -90.670194 -2.026401 1.741489 -4.644932 20.169313 15.559951 3.794563 1.345519 1.568514 22.899381 29.765719 -25.667858 -2.160651 -0.000009 -0.000009 0.000000 0.000000 0.000000 -90.670194 -2.026401 1.741489 -6.184557 -19.848444 -17.303026 2.704451 -5.812768 -4.743018 33.638159 -29.900546 30.385886 -5.386675 0.000002 -0.000006 0.000000 0.000000 0.000000 -90.670194 -2.026401 1.741489 0.643447 -0.171544 -0.820139 0.762686 0.011070 -0.441133 0.000000 0.000000 0.000000 0.000000 0.000000 0.000000 0.789615 0.004150 -0.423981 -4.673457 4.186579 -8.239876 4.245611 8.442072 -14.206922 0.000000 0.000000 0.000000 0.789615 0.004150 -0.423981 0.831445 -5.985264 -3.778118 0.000000 0.000000 0.000000 44.068510 -39.822735 -34.595998 0.000062 -83.311294 0.000027 0.000000 0.000000 0.000000 0.789615 0.004150 -0.423981 0.517165 4.195567 2.972748 0.000000 0.000000 0.000000 -4.397025 2.514816 83.955155 -179.999964 50.609830 179.999964 0.000000 0.000000 0.000000 
-0.043603 107.799767 -3.398682 0.000000 0.000000 0.000000 -90.684681 -2.017785 1.737054 -4.644086 20.173623 15.561164 3.804798 1.323075 1.568672 22.888708 29.762577 -25.655008 -2.262171 0.000011 0.000000 0.000000 0.000000 0.000000 -90.684681 -2.017785 1.737054 -6.161028 -19.850200 -17.303888 2.697576 -5.823778 -4.743222 33.638562 -29.899843 30.400837 -5.318761 0.000024 -0.000017 0.000000 0.000000 0.000000 -90.684681 -2.017785 1.737054 0.644182 -0.172073 -0.807320 0.775539 0.010199 -0.441929 0.000000 0.000000 0.000000 0.000000 0.000000 0.000000 0.799318 0.002339 -0.423854 -4.701080 4.246300 -8.217700 5.074986 8.483810 -14.697198 0.000000 0.000000 0.000000 0.799318 0.002339 -0.423854 0.821162 -6.021020 -3.761136 0.000000 0.000000 0.000000 44.049495 -39.812981 -34.639028 -0.000136 -83.307162 -0.000145 0.000000 0.000000 0.000000 0.799318 0.002339 -0.423854 0.506635 4.242361 2.977800 0.000000 0.000000 0.000000 -4.368386 2.476193 83.932841 -179.999937 50.586498 179.999937 0.000000 0.000000 0.000000 
-0.034248 107.798233 -3.395302 0.000000 0.000000 0.000000 -90.699298 -2.008860 1.731805 -4.645692 20.175738 15.563932 3.822605 1.285209 1.568987 22.888647 29.753277 -25.661174 -2.364395 0.000008 -0.000013 0.000000 0.000000 0.000000 -90.699298 -2.008860 1.731805 -6.144639 -19.850119 -17.305097 2.698127 -5.821717 -4.743502 33.648626 -29.898771 30.412473 -5.250984 0.000024 -0.000000 0.000000 0.000000 0.000000 -90.699298 -2.008860 1.731805 0.644590 -0.172395 -0.790735 0.790639 0.010042 -0.442317 0.000000 0.000000 0.000000 0.000000 0.000000 0.000000 0.802097 0.001532 -0.423876 -4.785000 4.319761 -8.193456 6.265797 8.513246 -15.381157 0.000000 0.000000 0.000000 0.802097 0.001532 -0.423876 0.814093 -6.042073 -3.750280 0.000000 0.000000 0.000000 44.046333 -39.816202 -34.649249 -0.000221 -83.299403 -0.000255 0.000000 0.000000 0.000000 0.802097 0.001532 -0.423876 0.495735 4.266200 2.985392 0.000000 0.000000 0.000000 -4.348700 2.459908 83.910274 179.999991 50.573507 -179.999991 0.000000 0.000000 0.000000 
-0.024587 107.796806 -3.390358 0.000000 0.000000 0.000000 -90.708088 -1.999829 1.726261 -4.662108 20.175105 15.572983 3.853704 1.287377 1.569288 22.875004 29.737008 -25.649196 -2.464166 0.000001 -0.000003 0.000000 0.000000 0.000000 -90.708088 -1.999829 1.726261 -6.133337 -19.848892 -17.307684 2.700872 -5.842014 -4.743699 33.652953 -29.896974 30.421608 -5.185672 0.000008 0.000002 0.000000 0.000000 0.000000 -90.708088 -1.999829 1.726261 0.644905 -0.172491 -0.772213 0.799683 0.010187 -0.442380 0.000000 0.000000 0.000000 0.000000 0.000000 0.000000 0.802059 0.001556 -0.424020 -4.906911 4.398965 -8.174134 7.457212 8.566891 -16.120729 0.000000 0.000000 0.000000 0.802059 0.001556 -0.424020 0.812168 -6.027386 -3.751177 0.000000 0.000000 0.000000 44.073066 -39.845555 -34.601974 -0.000148 -83.285633 -0.000183 0.000000 0.000000 0.000000 0.802059 0.001556 -0.424020 0.487826 4.245594 2.996222 0.000000 0.000000 0.000000 -4.351190 2.486578 83.885289 180.000005 50.580402 -179.999991 0.000000 0.000000 0.000000 
-0.015496 107.795448 -3.384361 0.000000 0.000000 0.000000 -90.710745 -1.991466 1.720745 -4.685586 20.171833 15.578876 3.883354 1.251698 1.569673 22.872191 29.720865 -25.649775 -2.558844 0.000014 0.000011 0.000000 0.000000 0.000000 -90.710745 -1.991466 1.720745 -6.135085 -19.845451 -17.308480 2.706156 -5.822438 -4.744083 33.673123 -29.896674 30.429879 -5.121755 -0.000007 -0.000018 0.000000 0.000000 0.000000 -90.710745 -1.991466 1.720745 0.645542 -0.172334 -0.753429 0.802786 0.010735 -0.442201 0.000000 0.000000 0.000000 0.000000 0.000000 0.000000 0.800753 0.002236 -0.424260 -5.049118 4.474110 -8.157741 8.353724 8.681482 -16.784915 0.000000 0.000000 0.000000 0.800753 0.002236 -0.424260 0.812632 -5.985358 -3.762703 0.000000 0.000000 0.000000 44.120614 -39.891655 -34.509807 0.000016 -83.268298 -0.000006 0.000000 0.000000 0.000000 0.800753 0.002236 -0.424260 0.487233 4.189667 3.003526 0.000000 0.000000 0.000000 -4.371343 2.547177 83.864150 -179.999978 50.604271 179.999991 0.000000 0.000000 0.000000 
-0.007890 107.794113 -3.377983 0.000000 0.000000 0.000000 -90.708669 -1.983872 1.715533 -4.712150 20.161147 15.588167 3.916324 1.254301 1.569995 22.863739 29.704776 -25.648899 -2.646818 -0.000004 -0.000005 0.000000 0.000000 0.000000 -90.708669 -1.983872 1.715533 -6.139245 -19.840878 -17.310682 2.712221 -5.841190 -4.744354 33.680906 -29.895605 30.436569 -5.062830 -0.000020 -0.000009 0.000000 0.000000 0.000000 -90.708669 -1.983872 1.715533 0.646328 -0.171924 -0.736078 0.804666 0.013084 -0.441862 0.000000 0.000000 0.000000 0.000000 0.000000 0.000000 0.799675 0.004204 -0.424568 -5.193653 4.536149 -8.146096 9.095314 8.783429 -17.262801 0.000000 0.000000 0.000000 0.799675 0.004204 -0.424568 0.814200 -5.934298 -3.781539 0.000000 0.000000 0.000000 44.176120 -39.940375 -34.398807 0.000410 -83.251304 0.000391 0.000000 0.000000 0.000000 0.799675 0.004204 -0.424568 0.489573 4.116862 3.004965 0.000000 0.000000 0.000000 -4.399772 2.622901 83.851842 -179.999964 50.637113 179.999964 0.000000 0.000000 0.000000 
